PathFileType	4	(X/Y/Z)	C:/Users/opensim2020/Desktop/walking_exp_matlab/subject01_walking09_straight_02.trc	
DataRate	CameraRate	NumFrames	NumMarkers	Units	OrigDataRate	OrigDataStartFrame	OrigNumFrames	
100.00	100.00	4	43	mm	100.00	2026	362	
Frame#	Time	LFHD			RFHD			LBHD			RBHD			C7			T10			CLAV			STRN			RBAK			LSHO			LUPA			LELB			LFRM			LWRA			LWRB			LFIN			RSHO			RUPA			RELB			RFRM			RWRA			RWRB			RFIN			LASI			RASI			LPSI			RPSI			LTHI			LKNE			LTIB			LANK			LHEE			LTOE			RTHI			RKNE			RTIB			RANK			RHEE			RTOE			*39			*40			*41			*42			
		X1	Y1	Z1	X2	Y2	Z2	X3	Y3	Z3	X4	Y4	Z4	X5	Y5	Z5	X6	Y6	Z6	X7	Y7	Z7	X8	Y8	Z8	X9	Y9	Z9	X10	Y10	Z10	X11	Y11	Z11	X12	Y12	Z12	X13	Y13	Z13	X14	Y14	Z14	X15	Y15	Z15	X16	Y16	Z16	X17	Y17	Z17	X18	Y18	Z18	X19	Y19	Z19	X20	Y20	Z20	X21	Y21	Z21	X22	Y22	Z22	X23	Y23	Z23	X24	Y24	Z24	X25	Y25	Z25	X26	Y26	Z26	X27	Y27	Z27	X28	Y28	Z28	X29	Y29	Z29	X30	Y30	Z30	X31	Y31	Z31	X32	Y32	Z32	X33	Y33	Z33	X34	Y34	Z34	X35	Y35	Z35	X36	Y36	Z36	X37	Y37	Z37	X38	Y38	Z38	X39	Y39	Z39	X40	Y40	Z40	X41	Y41	Z41	X42	Y42	Z42	X43	Y43	Z43	

136	1.350	1542.28992	396.99591	1665.59412	1431.37244	374.80698	1673.56519	1524.67114	516.18524	1632.39148	1405.75879	495.70859	1639.96570	1476.91333	564.98297	1437.57007	1458.09094	604.08746	1143.23328	1475.15466	424.25919	1365.33289	1475.37488	383.48578	1210.51587	1391.20056	623.34576	1244.96191	1636.20093	483.29193	1394.08325	1719.39343	506.05328	1209.31189	1720.91357	509.41113	1055.93738	1743.57654	447.21838	959.23834	1729.64709	340.88315	869.36163	1745.54419	395.08875	849.00720	1760.32971	334.35294	792.20599	1324.66028	485.50732	1401.10107	1217.35034	542.91809	1203.65576	1216.24329	544.36078	1077.49976	1189.44556	514.12439	959.82391	1214.18701	432.28131	846.51074	1174.44006	475.11111	844.31104	1175.33777	432.32822	771.46503	1559.75330	421.95877	933.27734	1341.65540	428.47705	942.82660	1508.77209	610.36987	946.79932	1362.84253	610.16699	951.16632	1596.56726	445.87415	599.43036	1572.93555	452.42706	465.79254	1574.49548	508.59760	283.54230	1516.65344	549.03027	71.52117	1463.89807	596.09723	43.63457	1522.54443	403.03867	34.93211	1268.95532	401.23529	619.21216	1286.53223	364.43951	465.38904	1290.77271	488.84872	339.58777	1344.17236	605.94849	173.47337	1403.15381	658.43561	158.41914	1322.29382	514.37469	69.92092	1454.12695	384.75986	1707.47595	-3101.93115	1973.12415	1023.42731	-3140.72266	2012.55969	1022.14880			 
137	1.360	1542.66260	389.87070	1665.35925	1431.86182	367.67227	1673.16736	1525.16431	509.13666	1632.42224	1406.25964	488.68256	1639.72339	1477.84912	558.34827	1437.60754	1459.32727	597.88593	1143.30969	1475.94922	417.71936	1364.99426	1476.21265	377.09299	1210.18396	1392.50903	617.10498	1245.01282	1637.03650	476.48462	1394.12634	1720.31116	498.94580	1209.35498	1721.92554	501.56201	1055.92883	1744.54749	438.03040	959.91748	1730.87012	330.13309	871.86261	1746.21899	384.06158	850.54559	1761.53052	322.52072	794.86963	1325.48804	479.06274	1400.83032	1218.26221	537.24048	1203.61646	1216.92590	538.88971	1077.50427	1189.84106	509.05740	959.92059	1214.05920	427.49081	846.15631	1174.44934	470.51501	844.19788	1175.22009	427.95432	770.99475	1560.60730	416.13159	932.94733	1342.56653	422.45245	942.97339	1509.41577	604.44128	946.60858	1363.42981	604.19989	951.11163	1596.86279	442.36584	598.73340	1573.17761	449.82718	465.22705	1574.37561	507.16473	283.33878	1516.56116	548.87634	71.62231	1463.82434	595.99921	43.91192	1522.66052	403.20117	34.91213	1269.64429	392.42188	620.54132	1287.66028	353.86154	466.71579	1291.14551	473.63147	336.13354	1343.91260	585.37170	166.47932	1402.84912	637.68481	148.87367	1322.10828	489.11990	67.09469	1454.60474	377.63742	1707.11487	-3101.89575	1973.16333	1023.41479	-3140.70435	2012.57898	1022.05878			 
138	1.370	1543.12512	382.83496	1665.18433	1432.31335	360.57120	1672.80115	1525.67725	502.15753	1632.36340	1406.72778	481.64636	1639.42810	1478.72961	551.60333	1437.58899	1460.54688	591.65900	1143.36938	1476.74048	411.21585	1364.73486	1477.03992	370.76166	1209.88745	1393.64648	610.86169	1245.00500	1637.82776	469.64807	1394.10242	1721.42285	491.91342	1209.42749	1723.01086	493.73523	1055.85596	1745.54187	428.85028	960.60272	1731.90588	319.40707	874.44232	1746.95142	373.06683	852.19159	1762.64575	310.63297	797.64685	1326.33130	472.57181	1400.62366	1219.12402	531.60132	1203.56958	1217.68640	533.46021	1077.43433	1190.12817	503.92786	959.87964	1213.90979	422.68057	845.93225	1174.48999	465.67432	844.00024	1175.32800	423.30710	770.72058	1561.42761	410.27780	932.63361	1343.48633	416.41040	943.01166	1510.04285	598.60388	946.41400	1363.95129	598.11102	950.97919	1597.00513	438.96033	598.07617	1573.41687	447.37115	464.69809	1574.42371	505.91513	283.23557	1516.51270	548.76300	71.83635	1463.74744	595.91150	44.17657	1522.27136	402.73343	34.70177	1270.25000	383.71960	621.62610	1288.57861	343.67068	467.87750	1291.44006	458.31299	332.61197	1343.83289	564.56573	158.82970	1402.15601	616.39709	139.18234	1322.40283	463.60315	64.42515	1454.87048	370.18948	1707.07251	-3101.91772	1973.12524	1023.42670	-3140.64063	2012.50122	1022.03638			 
139	1.380	1543.60217	375.81146	1664.99158	1432.67273	353.61667	1672.32410	1526.09351	495.14627	1632.25513	1407.21558	474.63129	1639.17310	1479.61328	544.92419	1437.55884	1461.56665	585.46387	1143.36060	1477.41980	404.65802	1364.40527	1477.77039	364.45490	1209.49902	1394.76990	604.59912	1245.02307	1638.59460	462.80212	1393.99756	1722.44019	484.82172	1209.35449	1724.18958	485.96313	1055.77478	1746.48340	419.58606	961.25104	1732.80225	308.72028	876.98297	1747.69299	362.04837	853.86176	1763.61951	298.71994	800.43005	1326.99731	466.13477	1400.24512	1219.95544	526.00977	1203.51538	1218.11633	528.01740	1077.37854	1190.31091	498.75659	959.76587	1213.85901	417.70612	845.69708	1174.43225	460.96451	843.90881	1175.21619	418.46472	770.30469	1562.27441	404.48514	932.14374	1344.29919	410.35736	943.02533	1510.51147	592.68372	946.12366	1364.43103	592.09894	950.76758	1597.42578	435.31070	597.58252	1573.78589	444.92001	464.16534	1574.55981	504.73886	283.08566	1516.53992	548.74792	71.97291	1463.57825	595.58081	44.18496	1522.50415	402.89270	34.79974	1270.91638	375.50604	622.55420	1289.56531	333.97168	468.88452	1291.57507	443.34558	329.38107	1343.32825	543.27362	151.53049	1401.01904	594.54456	129.36417	1322.71863	437.92465	61.55296	1455.30811	363.35422	1706.40454	-3101.91675	1973.04639	1023.54285	-3140.67871	2012.60437	1022.11908			 
